<svg width="24" height="24" viewBox="0 0 24 24" fill="none" xmlns="http://www.w3.org/2000/svg">
<path d="M21.215 17.3379C20.0408 15.9701 18.6158 14.8786 17.0298 14.132C15.4439 13.3854 13.7313 13 12 13C10.2687 13 8.55611 13.3854 6.97016 14.132C5.38421 14.8786 3.95924 15.9701 2.785 17.3379C2.60371 17.5534 2.5023 17.8329 2.5 18.1235V22.8373C2.50384 23.1471 2.62102 23.4428 2.82618 23.6604C3.03133 23.878 3.30795 24 3.59615 24H20.4038C20.6946 24 20.9734 23.8758 21.1789 23.6548C21.3845 23.4338 21.5 23.1341 21.5 22.8216V18.1078C21.4942 17.8227 21.393 17.5493 21.215 17.3379Z" fill="white"/>
<path d="M12 11C15.0376 11 17.5 8.53757 17.5 5.5C17.5 2.46243 15.0376 0 12 0C8.96243 0 6.5 2.46243 6.5 5.5C6.5 8.53757 8.96243 11 12 11Z" fill="white"/>
</svg>
