<svg width="24" height="24" viewBox="0 0 24 24" fill="none" xmlns="http://www.w3.org/2000/svg">
<path d="M7.72222 3L3 8L7.72222 13M11.5 20H14.3333C15.0775 20 15.8144 19.8448 16.5019 19.5433C17.1894 19.2417 17.8141 18.7998 18.3403 18.2426C18.8665 17.6855 19.2839 17.0241 19.5687 16.2961C19.8534 15.5681 20 14.7879 20 14C20 13.2121 19.8534 12.4319 19.5687 11.7039C19.2839 10.9759 18.8665 10.3145 18.3403 9.75736C17.8141 9.20021 17.1894 8.75825 16.5019 8.45672C15.8144 8.15519 15.0775 8 14.3333 8H3.94444" stroke="black" stroke-width="2.5"/>
</svg>
