<svg width="24" height="24" viewBox="0 0 24 24" fill="none" xmlns="http://www.w3.org/2000/svg">
<g clip-path="url(#clip0_1048_14305)">
<path d="M19.4533 0.786667C18.9467 0.28 18.2667 0 17.56 0H2.66667C1.95942 0 1.28115 0.280951 0.781048 0.781048C0.280951 1.28115 0 1.95942 0 2.66667V21.3333C0 22.8 1.2 24 2.66667 24H21.3333C22.8 24 24 22.8 24 21.3333V6.44C24 5.73333 23.72 5.05333 23.2133 4.56L19.4533 0.786667ZM12 21.3333C9.78667 21.3333 8 19.5467 8 17.3333C8 15.12 9.78667 13.3333 12 13.3333C14.2133 13.3333 16 15.12 16 17.3333C16 19.5467 14.2133 21.3333 12 21.3333ZM13.3333 8H5.33333C3.86667 8 2.66667 6.8 2.66667 5.33333C2.66667 3.86667 3.86667 2.66667 5.33333 2.66667H13.3333C14.8 2.66667 16 3.86667 16 5.33333C16 6.8 14.8 8 13.3333 8Z" fill="black"/>
</g>
<defs>
<clipPath id="clip0_1048_14305">
<rect width="24" height="24" fill="white"/>
</clipPath>
</defs>
</svg>
